<svg id="Layer_1" data-name="Layer 1" xmlns="http://www.w3.org/2000/svg" viewBox="0 0 70.94 25.87"><defs><style>.cls-1{fill:#fff;}</style></defs><path class="cls-1" d="M38,9.91l1.45-5h1l1.44,5h-.74L40,5.52H40L38.76,9.91Zm.67-1.21V8h2.54V8.7Z" transform="translate(-4.49 -4.91)"/><path class="cls-1" d="M19.36,12.51v-.67h3.17v.67Zm.54,4.1-.54-.43L22,12.05l.53.46Zm-.54.24v-.67H22.6v.67Z" transform="translate(-4.49 -4.91)"/><path class="cls-1" d="M23.63,16.85v-5h.73v5Zm0-4.34v-.67h3.31v.67Zm0,2.17V14H26.3v.67Zm0,2.17v-.67h3.31v.67Z" transform="translate(-4.49 -4.91)"/><path class="cls-1" d="M27.78,16.85v-5h.74v5Zm.69-1.9v-.67h1a.93.93,0,0,0,.66-.23.81.81,0,0,0,.23-.62,1,1,0,0,0-.23-.68.89.89,0,0,0-.66-.24h-1l-.08-.67h1.1a1.75,1.75,0,0,1,1.21.4,1.46,1.46,0,0,1,.42,1.12,1.58,1.58,0,0,1-.42,1.17A1.66,1.66,0,0,1,29.5,15Zm2,1.9-1.12-2.36h.77l1.2,2.36Z" transform="translate(-4.49 -4.91)"/><path class="cls-1" d="M33.63,16.92c-1.23,0-1.84-.85-1.84-2.54s.61-2.61,1.84-2.61,1.85.87,1.85,2.61S34.86,16.92,33.63,16.92Zm0-.65c.73,0,1.1-.63,1.1-1.89s-.37-2-1.1-2-1.09.66-1.09,2S32.91,16.27,33.63,16.27Z" transform="translate(-4.49 -4.91)"/><path class="cls-1" d="M40.26,12.51v-.67h3.66v.67Zm1.47,4.34v-5h.73v5Z" transform="translate(-4.49 -4.91)"/><path class="cls-1" d="M44.7,16.85v-5h.73v5Zm.68-1.9v-.67h1a.89.89,0,0,0,.65-.23.78.78,0,0,0,.24-.62.92.92,0,0,0-.24-.68.85.85,0,0,0-.65-.24h-1l-.09-.67h1.11a1.7,1.7,0,0,1,1.2.4,1.43,1.43,0,0,1,.43,1.12,1.55,1.55,0,0,1-.43,1.17,1.62,1.62,0,0,1-1.2.42Zm2,1.9-1.12-2.36H47l1.19,2.36Z" transform="translate(-4.49 -4.91)"/><path class="cls-1" d="M50.53,16.92c-1.07,0-1.6-.56-1.6-1.68v-3.4h.73v3.4a1.13,1.13,0,0,0,.22.76.84.84,0,0,0,.67.25c.59,0,.89-.34.89-1v-3.4h.73v3.4a1.71,1.71,0,0,1-.42,1.26A1.63,1.63,0,0,1,50.53,16.92Z" transform="translate(-4.49 -4.91)"/><path class="cls-1" d="M54.61,16.92a4,4,0,0,1-.8-.07,2.92,2.92,0,0,1-.69-.21l.09-.71a4.12,4.12,0,0,0,.75.25,2.86,2.86,0,0,0,.7.09,1.29,1.29,0,0,0,.73-.17.61.61,0,0,0,.24-.53.68.68,0,0,0-.45-.65l-.87-.4a2.06,2.06,0,0,1-.78-.56,1.19,1.19,0,0,1-.28-.81,1.29,1.29,0,0,1,.4-1,1.58,1.58,0,0,1,1.11-.36,2.5,2.5,0,0,1,.9.15,2.46,2.46,0,0,1,.74.48l-.49.5a2.56,2.56,0,0,0-.58-.36,1.38,1.38,0,0,0-.56-.12.8.8,0,0,0-.56.18.6.6,0,0,0-.2.51.58.58,0,0,0,.13.4,1.06,1.06,0,0,0,.38.27l.73.35a2.49,2.49,0,0,1,.85.59A1.38,1.38,0,0,1,56,16.58,2.19,2.19,0,0,1,54.61,16.92Z" transform="translate(-4.49 -4.91)"/><path class="cls-1" d="M57.17,12.51v-.67h3.67v.67Zm1.47,4.34v-5h.73v5Z" transform="translate(-4.49 -4.91)"/><path class="cls-1" d="M33.79,23.78l1.45-5h1l1.44,5H37l-1.18-4.4h-.06l-1.19,4.4Zm.67-1.22v-.67H37v.67Z" transform="translate(-4.49 -4.91)"/><path class="cls-1" d="M38.38,23.78v-5h.74v5Zm2.24,0L39.19,20h-.33v-1.2h.47l1.44,3.8h.17v1.2Zm.22,0v-5h.73v5Z" transform="translate(-4.49 -4.91)"/><path class="cls-1" d="M42.58,23.78v-5h.74v5Zm.69,0v-.67h.53A1.49,1.49,0,0,0,45,22.67a1.93,1.93,0,0,0,.39-1.32A2.22,2.22,0,0,0,45,19.92a1.41,1.41,0,0,0-1.16-.47h-.52l-.08-.67h.6c1.52,0,2.29.85,2.29,2.57s-.77,2.43-2.29,2.43Z" transform="translate(-4.49 -4.91)"/><path class="cls-1" d="M6,30.79a4.84,4.84,0,0,1-.79-.07,3.48,3.48,0,0,1-.69-.21l.09-.71a5.07,5.07,0,0,0,.75.25,2.86,2.86,0,0,0,.7.09A1.21,1.21,0,0,0,6.76,30,.59.59,0,0,0,7,29.44a.69.69,0,0,0-.45-.66l-.87-.39a2.32,2.32,0,0,1-.79-.56A1.25,1.25,0,0,1,4.62,27,1.28,1.28,0,0,1,5,26a1.58,1.58,0,0,1,1.11-.36,2.24,2.24,0,0,1,1.64.63l-.49.5a2.64,2.64,0,0,0-.58-.37,1.55,1.55,0,0,0-.56-.11.88.88,0,0,0-.57.17.67.67,0,0,0-.19.52.6.6,0,0,0,.13.4,1.06,1.06,0,0,0,.38.27l.73.34a2.64,2.64,0,0,1,.85.59,1.25,1.25,0,0,1,.29.85,1.23,1.23,0,0,1-.44,1A2.27,2.27,0,0,1,6,30.79Z" transform="translate(-4.49 -4.91)"/><path class="cls-1" d="M8.83,30.71v-5h.73v5Zm0-4.33v-.67h3.31v.67Zm0,2.16v-.67H11.5v.67Zm0,2.17v-.66h3.31v.66Z" transform="translate(-4.49 -4.91)"/><path class="cls-1" d="M15.13,30.79q-2.34,0-2.34-2.58a2.81,2.81,0,0,1,.59-1.9A2.08,2.08,0,0,1,15,25.64a2.23,2.23,0,0,1,.9.16,1.1,1.1,0,0,1,.56.47l-.52.52a1.09,1.09,0,0,0-.4-.37,1.07,1.07,0,0,0-.53-.13,1.34,1.34,0,0,0-1.09.49,2.06,2.06,0,0,0-.41,1.39c0,1.31.56,2,1.7,2a2.53,2.53,0,0,0,1-.21l.17.62A3.52,3.52,0,0,1,15.13,30.79Z" transform="translate(-4.49 -4.91)"/><path class="cls-1" d="M18.82,30.79c-1.07,0-1.61-.56-1.61-1.68v-3.4H18v3.4a1.16,1.16,0,0,0,.21.75.83.83,0,0,0,.67.26c.6,0,.89-.34.89-1v-3.4h.73v3.4A1.71,1.71,0,0,1,20,30.37,1.66,1.66,0,0,1,18.82,30.79Z" transform="translate(-4.49 -4.91)"/><path class="cls-1" d="M21.44,30.71v-5h.73v5Zm.68-1.9v-.67h1a.88.88,0,0,0,.65-.22.81.81,0,0,0,.24-.62.91.91,0,0,0-.24-.68.85.85,0,0,0-.65-.24h-1l-.09-.67h1.11a1.66,1.66,0,0,1,1.2.4,1.42,1.42,0,0,1,.43,1.12,1.55,1.55,0,0,1-.43,1.17,1.66,1.66,0,0,1-1.2.41Zm2,1.9L23,28.36h.77L25,30.71Z" transform="translate(-4.49 -4.91)"/><path class="cls-1" d="M25.77,26.38v-.67h3v.67Zm0,4.33v-.66h3v.66Zm1.15,0v-5h.73v5Z" transform="translate(-4.49 -4.91)"/><path class="cls-1" d="M29.69,26.38v-.67h3.66v.67Zm1.46,4.33v-5h.74v5Z" transform="translate(-4.49 -4.91)"/><path class="cls-1" d="M35.45,29l-1.73-3.33h.78l1.22,2.5h.06L37,25.71h.77L36.05,29Zm-.07,1.67V28.25h.73v2.46Z" transform="translate(-4.49 -4.91)"/><path class="cls-1" d="M42.66,30.71v-5h.73v5Zm.64-1.55v-.67h.83a1.21,1.21,0,0,0,.87-.28,1.1,1.1,0,0,0,.3-.84.91.91,0,0,0-.3-.74,1.31,1.31,0,0,0-.87-.25h-.81v-.67h.81a2.09,2.09,0,0,1,1.42.42A1.53,1.53,0,0,1,46,27.37a1.74,1.74,0,0,1-.49,1.34,2,2,0,0,1-1.42.45Z" transform="translate(-4.49 -4.91)"/><path class="cls-1" d="M46.81,30.71v-5h.74v5Zm.69-1.9v-.67h1a.92.92,0,0,0,.66-.22.85.85,0,0,0,.23-.62,1,1,0,0,0-.23-.68.89.89,0,0,0-.66-.24h-1l-.08-.67h1.1a1.7,1.7,0,0,1,1.21.4,1.45,1.45,0,0,1,.42,1.12,1.58,1.58,0,0,1-.42,1.17,1.7,1.7,0,0,1-1.21.41Zm2,1.9-1.12-2.35h.77l1.19,2.35Z" transform="translate(-4.49 -4.91)"/><path class="cls-1" d="M52.66,30.79c-1.23,0-1.84-.85-1.84-2.54s.61-2.61,1.84-2.61,1.85.87,1.85,2.61S53.89,30.79,52.66,30.79Zm0-.65c.73,0,1.1-.63,1.1-1.89s-.37-2-1.1-2-1.09.65-1.09,2S51.94,30.14,52.66,30.14Z" transform="translate(-4.49 -4.91)"/><path class="cls-1" d="M55.27,30.71v-5H56v5Zm.68,0v-.66h.53a1.44,1.44,0,0,0,1.16-.45A1.93,1.93,0,0,0,58,28.28a2.24,2.24,0,0,0-.39-1.43,1.42,1.42,0,0,0-1.16-.47H56l-.09-.67h.6c1.53,0,2.29.86,2.29,2.57s-.76,2.43-2.29,2.43Z" transform="translate(-4.49 -4.91)"/><path class="cls-1" d="M61.11,30.79c-1.07,0-1.61-.56-1.61-1.68v-3.4h.73v3.4a1.1,1.1,0,0,0,.22.75.83.83,0,0,0,.67.26c.59,0,.89-.34.89-1v-3.4h.73v3.4a1.75,1.75,0,0,1-.41,1.26A1.66,1.66,0,0,1,61.11,30.79Z" transform="translate(-4.49 -4.91)"/><path class="cls-1" d="M65.87,30.79c-1.55,0-2.33-.86-2.33-2.58a2.76,2.76,0,0,1,.59-1.9,2.07,2.07,0,0,1,1.66-.67,2.29,2.29,0,0,1,.9.16,1.19,1.19,0,0,1,.56.47l-.52.52a1.12,1.12,0,0,0-.41-.37,1.07,1.07,0,0,0-.53-.13,1.35,1.35,0,0,0-1.09.49,2.11,2.11,0,0,0-.41,1.39c0,1.31.57,2,1.7,2a2.58,2.58,0,0,0,1-.21l.16.62A3.52,3.52,0,0,1,65.87,30.79Z" transform="translate(-4.49 -4.91)"/><path class="cls-1" d="M67.75,26.38v-.67h3.66v.67Zm1.46,4.33v-5h.73v5Z" transform="translate(-4.49 -4.91)"/><path class="cls-1" d="M73.63,30.79a4.84,4.84,0,0,1-.79-.07,3.48,3.48,0,0,1-.69-.21l.09-.71a5.07,5.07,0,0,0,.75.25,2.86,2.86,0,0,0,.7.09,1.21,1.21,0,0,0,.73-.18.59.59,0,0,0,.24-.52.69.69,0,0,0-.46-.66l-.86-.39a2.32,2.32,0,0,1-.79-.56,1.25,1.25,0,0,1-.27-.82,1.28,1.28,0,0,1,.4-1,1.58,1.58,0,0,1,1.11-.36,2.24,2.24,0,0,1,1.64.63l-.49.5a2.64,2.64,0,0,0-.58-.37,1.55,1.55,0,0,0-.56-.11.88.88,0,0,0-.57.17A.67.67,0,0,0,73,27a.66.66,0,0,0,.13.4,1.21,1.21,0,0,0,.39.27l.73.34a2.64,2.64,0,0,1,.85.59,1.25,1.25,0,0,1,.29.85,1.21,1.21,0,0,1-.45,1A2.22,2.22,0,0,1,73.63,30.79Z" transform="translate(-4.49 -4.91)"/></svg>